<svg xmlns="http://www.w3.org/2000/svg" viewBox="0 0 106 128.25">
	<path d="m 103.9 56.3 c 0 -7 -3.9 -11 -7.6 -11 c -.1 0 -.3 0 -.4 0 c -.9 .1 -1.6 -.4 -1.8 -1.3 c -2.5 -15.8 -10.4 -29.1 -21.1 -36.6 c -13.9 -9.5 -27.8 -9.5 -41.7 1.4 c -9.7 7.7 -16.8 20.3 -19.2 35.1 c -.1 .9 -.9 1.4 -1.8 1.3 c -.1 0 -.3 0 -.4 0 c -3.8 0 -7.6 4 -7.6 11 c 0 5.6 2.5 11.5 5.5 13.5 c -3 4 -4.7 10.3 -4.3 15.4 c 0 .5 .7 .7 1 .2 c .8 -1.5 2.2 -3.6 4.3 -5 c -5 8.9 -5.3 21 -.2 29.1 c .3 .4 1 .2 1 -.3 c -.1 -2 .1 -5.3 1.4 -8.4 c .7 8.3 4.5 16.3 9.1 19.9 c .4 .3 .9 0 .8 -.5 c -.2 -1.5 -.4 -4.3 -.4 -7 c 2.5 5.8 6.1 10.5 13.5 13.8 c .5 .2 .9 -.3 .7 -.7 c -.9 -1.6 -2.3 -4.2 -2.5 -6.8 c 14 8 28 8 41.9 0 c -.2 2.6 -1.5 5.2 -2.5 6.8 c -.3 .4 .2 .9 .7 .7 c 7.5 -3.3 11.1 -8 13.5 -13.8 c .1 2.7 -.2 5.4 -.4 7 c -.1 .5 .5 .8 .8 .5 c 4.6 -3.6 8.4 -11.5 9.1 -19.9 c 1.3 3.1 1.4 6.4 1.4 8.4 c 0 .5 .7 .7 1 .3 c 5.1 -8.1 4.8 -20.2 -.2 -29.1 c 2.2 1.3 3.6 3.5 4.3 5 c .2 .5 .9 .3 1 -.2 c .4 -5.1 -1.3 -11.3 -4.3 -15.4 c 2.9 -1.9 5.4 -7.8 5.4 -13.4 z" />

	<path d="m 10.5 47.5 c -9 4 -7 14 -2 20 c 2.2 1.5 2 -2 1.6 -2 c -6 -5 -6 -13 0 -16 c 1 -.75 1.5 -1.75 .5 -2 z" fill="#fff" />
	<path d="m 95.5 47.5 c 9 4 7 14 2 20 c -2.2 1.5 -2 -2 -1.6 -2 c 6 -5 6 -13 0 -16 c -1 -.75 -1.5 -1.75 -.5 -2 z" fill="#fff" />

	<ellipse cx="53" cy="57.5" rx="38" ry="26" fill="#fff" />

	<ellipse cx="53" cy="92.5" rx="32" ry="24" fill="#fff" />

	<circle r="5" cx="35" cy="57.5" />
	<circle r="5" cx="71" cy="57.5" />

	<circle r="6" cx="43.5" cy="73.5" />
	<circle r="6" cx="62.5" cy="73.5" />

	<circle r="5.5" cx="44" cy="74" fill="#fff" />
	<circle r="5.5" cx="62" cy="74" fill="#fff" />

	<g style="transform: scale(1.25)">
		<path d="m 38.649 76.978 c -12.275 4.395 -14.488 14.147 -15.906 15.876 c -1.416 1.729 -1.826 .816 -1.826 .816 c -1.127 -4.973 -1.943 -6.799 -1.943 -6.799 c -.451 -1.007 -2.859 -.911 -5.381 .217 c -2.521 1.127 -4.199 2.857 -3.748 3.865 c 0 0 2.031 14.343 10.279 10.74 c 9.646 -4.213 5.146 -17.9 19.342 -22.889 l -.817 -1.826 z" stroke="#fff" stroke-width="1" paint-order="stroke" />

		<path d="m 14 88 c 1.174 -.524 2.363 -.825 3.268 -.825 c.445 0 .668 .073 .764 .118 c 0 0 .004 .001 .004 .002 c -.105 .407 -1.082 1.576 -3.219 2.531 c -1.174 .524 -2.365 .825 -3.268 .825 c -.447 0 -.672 -.074 -.766 -.118 c 0 0 -.002 -.001 -.002 -.002 c.108 -.408 1.085 -1.576 3.219 -2.531 z" fill="#fff" />
	</g>

	<path d="m 29 94 c 16 7 32 7 48 0 c -16 3 -32 3 -48 0 z" />

</svg>